<mxfile host="Electron" agent="Mozilla/5.0 (Windows NT 10.0; Win64; x64) AppleWebKit/537.36 (KHTML, like Gecko) draw.io/28.1.2 Chrome/138.0.7204.243 Electron/37.4.0 Safari/537.36" version="28.1.2">
  <diagram name="Page-1" id="bzJvxL3EzTKknFzv9Ok9">
    <mxGraphModel dx="1892" dy="626" grid="1" gridSize="10" guides="1" tooltips="1" connect="1" arrows="1" fold="1" page="1" pageScale="1" pageWidth="850" pageHeight="1100" math="0" shadow="0">
      <root>
        <mxCell id="0" />
        <mxCell id="1" parent="0" />
        <mxCell id="tDKwjG9Szb6Y_vNa8xe7-1" value="SE01&amp;nbsp; App Not Available" style="swimlane;html=1;startSize=20;horizontal=0;fillColor=#e51400;strokeColor=#B20000;fontColor=#ffffff;" parent="1" vertex="1">
          <mxGeometry x="-80" y="190" width="480" height="190" as="geometry" />
        </mxCell>
        <mxCell id="tDKwjG9Szb6Y_vNa8xe7-2" style="edgeStyle=orthogonalEdgeStyle;rounded=0;orthogonalLoop=1;jettySize=auto;html=1;exitX=1;exitY=0.5;exitDx=0;exitDy=0;entryX=0;entryY=0.5;entryDx=0;entryDy=0;" parent="tDKwjG9Szb6Y_vNa8xe7-1" source="tDKwjG9Szb6Y_vNa8xe7-3" target="tDKwjG9Szb6Y_vNa8xe7-8" edge="1">
          <mxGeometry relative="1" as="geometry" />
        </mxCell>
        <mxCell id="tDKwjG9Szb6Y_vNa8xe7-3" value="SE01" style="ellipse;whiteSpace=wrap;html=1;rounded=0;shadow=0;labelBackgroundColor=none;strokeWidth=1;fontFamily=Verdana;fontSize=8;align=center;fillColor=#e51400;strokeColor=#B20000;fontStyle=1;fontColor=#ffffff;" parent="tDKwjG9Szb6Y_vNa8xe7-1" vertex="1">
          <mxGeometry x="40" y="58" width="60" height="60" as="geometry" />
        </mxCell>
        <mxCell id="tDKwjG9Szb6Y_vNa8xe7-4" style="edgeStyle=orthogonalEdgeStyle;rounded=0;orthogonalLoop=1;jettySize=auto;html=1;exitX=1;exitY=0.5;exitDx=0;exitDy=0;entryX=0;entryY=0.5;entryDx=0;entryDy=0;" parent="tDKwjG9Szb6Y_vNa8xe7-1" source="tDKwjG9Szb6Y_vNa8xe7-5" target="tDKwjG9Szb6Y_vNa8xe7-6" edge="1">
          <mxGeometry relative="1" as="geometry" />
        </mxCell>
        <mxCell id="tDKwjG9Szb6Y_vNa8xe7-5" value="Send Mail To Exeptions" style="rounded=1;whiteSpace=wrap;html=1;shadow=0;labelBackgroundColor=none;strokeWidth=1;fontFamily=Verdana;fontSize=8;align=center;fillColor=#e51400;strokeColor=#B20000;fontStyle=1;fontColor=#ffffff;" parent="tDKwjG9Szb6Y_vNa8xe7-1" vertex="1">
          <mxGeometry x="270" y="63.75" width="90" height="48.5" as="geometry" />
        </mxCell>
        <mxCell id="tDKwjG9Szb6Y_vNa8xe7-6" value="End&amp;nbsp;&lt;div&gt;Process&lt;/div&gt;" style="ellipse;whiteSpace=wrap;html=1;rounded=0;shadow=0;labelBackgroundColor=none;strokeWidth=1;fontFamily=Verdana;fontSize=8;align=center;fillColor=#ffcccc;strokeColor=#36393d;fontStyle=1;" parent="tDKwjG9Szb6Y_vNa8xe7-1" vertex="1">
          <mxGeometry x="410" y="58" width="60" height="60" as="geometry" />
        </mxCell>
        <mxCell id="tDKwjG9Szb6Y_vNa8xe7-7" style="edgeStyle=orthogonalEdgeStyle;rounded=0;orthogonalLoop=1;jettySize=auto;html=1;exitX=1;exitY=0.5;exitDx=0;exitDy=0;entryX=0;entryY=0.5;entryDx=0;entryDy=0;" parent="tDKwjG9Szb6Y_vNa8xe7-1" source="tDKwjG9Szb6Y_vNa8xe7-8" target="tDKwjG9Szb6Y_vNa8xe7-5" edge="1">
          <mxGeometry relative="1" as="geometry" />
        </mxCell>
        <mxCell id="tDKwjG9Szb6Y_vNa8xe7-8" value="Close Application and retry" style="rounded=1;whiteSpace=wrap;html=1;shadow=0;labelBackgroundColor=none;strokeWidth=1;fontFamily=Verdana;fontSize=8;align=center;fillColor=#e51400;strokeColor=#B20000;fontStyle=1;fontColor=#ffffff;" parent="tDKwjG9Szb6Y_vNa8xe7-1" vertex="1">
          <mxGeometry x="140" y="63.75" width="90" height="48.5" as="geometry" />
        </mxCell>
        <mxCell id="tDKwjG9Szb6Y_vNa8xe7-9" style="edgeStyle=orthogonalEdgeStyle;rounded=0;orthogonalLoop=1;jettySize=auto;html=1;exitX=0;exitY=1;exitDx=0;exitDy=0;entryX=0.25;entryY=1;entryDx=0;entryDy=0;" parent="tDKwjG9Szb6Y_vNa8xe7-1" source="tDKwjG9Szb6Y_vNa8xe7-8" target="tDKwjG9Szb6Y_vNa8xe7-8" edge="1">
          <mxGeometry relative="1" as="geometry">
            <Array as="points">
              <mxPoint x="140" y="128" />
              <mxPoint x="160" y="128" />
              <mxPoint x="160" y="112" />
            </Array>
          </mxGeometry>
        </mxCell>
        <mxCell id="tDKwjG9Szb6Y_vNa8xe7-10" value="2x" style="edgeLabel;html=1;align=center;verticalAlign=middle;resizable=0;points=[];" parent="tDKwjG9Szb6Y_vNa8xe7-9" vertex="1" connectable="0">
          <mxGeometry x="-0.2234" y="3" relative="1" as="geometry">
            <mxPoint as="offset" />
          </mxGeometry>
        </mxCell>
        <mxCell id="tDKwjG9Szb6Y_vNa8xe7-23" value="BE01 Wrong Credential" style="swimlane;html=1;startSize=20;horizontal=0;fillColor=#e51400;strokeColor=#B20000;fontColor=#ffffff;" parent="1" vertex="1">
          <mxGeometry x="400" y="380" width="480" height="190" as="geometry" />
        </mxCell>
        <mxCell id="tDKwjG9Szb6Y_vNa8xe7-24" value="BE01" style="ellipse;whiteSpace=wrap;html=1;rounded=0;shadow=0;labelBackgroundColor=none;strokeWidth=1;fontFamily=Verdana;fontSize=8;align=center;fillColor=#e51400;strokeColor=#B20000;fontStyle=1;fontColor=#ffffff;" parent="tDKwjG9Szb6Y_vNa8xe7-23" vertex="1">
          <mxGeometry x="40" y="65" width="60" height="60" as="geometry" />
        </mxCell>
        <mxCell id="tDKwjG9Szb6Y_vNa8xe7-25" style="edgeStyle=orthogonalEdgeStyle;rounded=0;orthogonalLoop=1;jettySize=auto;html=1;exitX=1;exitY=0.5;exitDx=0;exitDy=0;entryX=0;entryY=0.5;entryDx=0;entryDy=0;" parent="tDKwjG9Szb6Y_vNa8xe7-23" source="tDKwjG9Szb6Y_vNa8xe7-26" target="tDKwjG9Szb6Y_vNa8xe7-27" edge="1">
          <mxGeometry relative="1" as="geometry" />
        </mxCell>
        <mxCell id="tDKwjG9Szb6Y_vNa8xe7-26" value="Send Mail to exceptions" style="rounded=1;whiteSpace=wrap;html=1;shadow=0;labelBackgroundColor=none;strokeWidth=1;fontFamily=Verdana;fontSize=8;align=center;fillColor=#e51400;strokeColor=#B20000;fontStyle=1;fontColor=#ffffff;" parent="tDKwjG9Szb6Y_vNa8xe7-23" vertex="1">
          <mxGeometry x="220" y="70.75" width="90" height="48.5" as="geometry" />
        </mxCell>
        <mxCell id="tDKwjG9Szb6Y_vNa8xe7-27" value="End&amp;nbsp;&lt;div&gt;Process&lt;/div&gt;" style="ellipse;whiteSpace=wrap;html=1;rounded=0;shadow=0;labelBackgroundColor=none;strokeWidth=1;fontFamily=Verdana;fontSize=8;align=center;fillColor=#ffcccc;strokeColor=#36393d;fontStyle=1;" parent="tDKwjG9Szb6Y_vNa8xe7-23" vertex="1">
          <mxGeometry x="410" y="65" width="60" height="60" as="geometry" />
        </mxCell>
        <mxCell id="tDKwjG9Szb6Y_vNa8xe7-28" style="edgeStyle=orthogonalEdgeStyle;rounded=0;orthogonalLoop=1;jettySize=auto;html=1;entryX=0;entryY=0.5;entryDx=0;entryDy=0;exitX=1;exitY=0.5;exitDx=0;exitDy=0;" parent="tDKwjG9Szb6Y_vNa8xe7-23" source="tDKwjG9Szb6Y_vNa8xe7-24" target="tDKwjG9Szb6Y_vNa8xe7-26" edge="1">
          <mxGeometry relative="1" as="geometry">
            <mxPoint x="140" y="95" as="sourcePoint" />
          </mxGeometry>
        </mxCell>
        <mxCell id="tDKwjG9Szb6Y_vNa8xe7-11" value="SE03 Unresponsive" style="swimlane;html=1;startSize=20;horizontal=0;fillColor=#e51400;strokeColor=#B20000;fontColor=#ffffff;" parent="1" vertex="1">
          <mxGeometry x="-80" y="380" width="480" height="190" as="geometry" />
        </mxCell>
        <mxCell id="-CNI9j7d4ndpFzIIxBZn-9" style="edgeStyle=orthogonalEdgeStyle;rounded=0;orthogonalLoop=1;jettySize=auto;html=1;exitX=1;exitY=0.5;exitDx=0;exitDy=0;entryX=0;entryY=0.5;entryDx=0;entryDy=0;" edge="1" parent="tDKwjG9Szb6Y_vNa8xe7-11" source="-CNI9j7d4ndpFzIIxBZn-10" target="-CNI9j7d4ndpFzIIxBZn-13">
          <mxGeometry relative="1" as="geometry" />
        </mxCell>
        <mxCell id="-CNI9j7d4ndpFzIIxBZn-10" value="SE02" style="ellipse;whiteSpace=wrap;html=1;rounded=0;shadow=0;labelBackgroundColor=none;strokeWidth=1;fontFamily=Verdana;fontSize=8;align=center;fillColor=#e51400;strokeColor=#B20000;fontStyle=1;fontColor=#ffffff;" vertex="1" parent="tDKwjG9Szb6Y_vNa8xe7-11">
          <mxGeometry x="50" y="45" width="60" height="60" as="geometry" />
        </mxCell>
        <mxCell id="-CNI9j7d4ndpFzIIxBZn-11" value="Initialize Apps" style="ellipse;whiteSpace=wrap;html=1;rounded=0;shadow=0;labelBackgroundColor=none;strokeWidth=1;fontFamily=Verdana;fontSize=8;align=center;fillColor=#dae8fc;strokeColor=#6c8ebf;fontStyle=1;" vertex="1" parent="tDKwjG9Szb6Y_vNa8xe7-11">
          <mxGeometry x="380" y="45" width="60" height="60" as="geometry" />
        </mxCell>
        <mxCell id="-CNI9j7d4ndpFzIIxBZn-21" style="edgeStyle=orthogonalEdgeStyle;rounded=0;orthogonalLoop=1;jettySize=auto;html=1;exitX=1;exitY=0.5;exitDx=0;exitDy=0;entryX=0;entryY=0.5;entryDx=0;entryDy=0;" edge="1" parent="tDKwjG9Szb6Y_vNa8xe7-11" source="-CNI9j7d4ndpFzIIxBZn-13" target="-CNI9j7d4ndpFzIIxBZn-20">
          <mxGeometry relative="1" as="geometry" />
        </mxCell>
        <mxCell id="-CNI9j7d4ndpFzIIxBZn-13" value="Refresh and try again" style="rounded=1;whiteSpace=wrap;html=1;shadow=0;labelBackgroundColor=none;strokeWidth=1;fontFamily=Verdana;fontSize=8;align=center;fillColor=#e51400;strokeColor=#B20000;fontStyle=1;fontColor=#ffffff;" vertex="1" parent="tDKwjG9Szb6Y_vNa8xe7-11">
          <mxGeometry x="150" y="50.75" width="90" height="48.5" as="geometry" />
        </mxCell>
        <mxCell id="-CNI9j7d4ndpFzIIxBZn-14" value="Checked in every file" style="text;html=1;align=center;verticalAlign=middle;whiteSpace=wrap;rounded=0;fontStyle=1" vertex="1" parent="tDKwjG9Szb6Y_vNa8xe7-11">
          <mxGeometry x="80" y="10" width="80" height="30" as="geometry" />
        </mxCell>
        <mxCell id="-CNI9j7d4ndpFzIIxBZn-15" style="edgeStyle=orthogonalEdgeStyle;rounded=0;orthogonalLoop=1;jettySize=auto;html=1;exitX=0;exitY=0.75;exitDx=0;exitDy=0;entryX=0.25;entryY=1;entryDx=0;entryDy=0;" edge="1" parent="tDKwjG9Szb6Y_vNa8xe7-11" source="-CNI9j7d4ndpFzIIxBZn-13" target="-CNI9j7d4ndpFzIIxBZn-13">
          <mxGeometry relative="1" as="geometry">
            <Array as="points">
              <mxPoint x="140" y="87" />
              <mxPoint x="140" y="120" />
              <mxPoint x="173" y="120" />
            </Array>
          </mxGeometry>
        </mxCell>
        <mxCell id="-CNI9j7d4ndpFzIIxBZn-16" value="2x" style="edgeLabel;html=1;align=center;verticalAlign=middle;resizable=0;points=[];" vertex="1" connectable="0" parent="-CNI9j7d4ndpFzIIxBZn-15">
          <mxGeometry x="-0.0952" relative="1" as="geometry">
            <mxPoint x="1" as="offset" />
          </mxGeometry>
        </mxCell>
        <mxCell id="-CNI9j7d4ndpFzIIxBZn-22" style="edgeStyle=orthogonalEdgeStyle;rounded=0;orthogonalLoop=1;jettySize=auto;html=1;exitX=1;exitY=0.5;exitDx=0;exitDy=0;entryX=0;entryY=0.5;entryDx=0;entryDy=0;" edge="1" parent="tDKwjG9Szb6Y_vNa8xe7-11" source="-CNI9j7d4ndpFzIIxBZn-20" target="-CNI9j7d4ndpFzIIxBZn-11">
          <mxGeometry relative="1" as="geometry" />
        </mxCell>
        <mxCell id="-CNI9j7d4ndpFzIIxBZn-20" value="Send Mail to exceptions with screen" style="rounded=1;whiteSpace=wrap;html=1;shadow=0;labelBackgroundColor=none;strokeWidth=1;fontFamily=Verdana;fontSize=8;align=center;fillColor=#e51400;strokeColor=#B20000;fontStyle=1;fontColor=#ffffff;" vertex="1" parent="tDKwjG9Szb6Y_vNa8xe7-11">
          <mxGeometry x="265" y="50.75" width="90" height="48.5" as="geometry" />
        </mxCell>
        <mxCell id="tDKwjG9Szb6Y_vNa8xe7-17" value="SE02&amp;nbsp; App Crash" style="swimlane;html=1;startSize=20;horizontal=0;fillColor=#e51400;strokeColor=#B20000;fontColor=#ffffff;" parent="1" vertex="1">
          <mxGeometry x="400" y="190" width="480" height="190" as="geometry" />
        </mxCell>
        <mxCell id="-CNI9j7d4ndpFzIIxBZn-2" style="edgeStyle=orthogonalEdgeStyle;rounded=0;orthogonalLoop=1;jettySize=auto;html=1;exitX=1;exitY=0.5;exitDx=0;exitDy=0;entryX=0;entryY=0.5;entryDx=0;entryDy=0;" edge="1" parent="tDKwjG9Szb6Y_vNa8xe7-17" source="tDKwjG9Szb6Y_vNa8xe7-18" target="-CNI9j7d4ndpFzIIxBZn-1">
          <mxGeometry relative="1" as="geometry" />
        </mxCell>
        <mxCell id="tDKwjG9Szb6Y_vNa8xe7-18" value="SE02" style="ellipse;whiteSpace=wrap;html=1;rounded=0;shadow=0;labelBackgroundColor=none;strokeWidth=1;fontFamily=Verdana;fontSize=8;align=center;fillColor=#e51400;strokeColor=#B20000;fontStyle=1;fontColor=#ffffff;" parent="tDKwjG9Szb6Y_vNa8xe7-17" vertex="1">
          <mxGeometry x="40" y="45" width="60" height="60" as="geometry" />
        </mxCell>
        <mxCell id="tDKwjG9Szb6Y_vNa8xe7-21" value="Initialize Apps" style="ellipse;whiteSpace=wrap;html=1;rounded=0;shadow=0;labelBackgroundColor=none;strokeWidth=1;fontFamily=Verdana;fontSize=8;align=center;fillColor=#dae8fc;strokeColor=#6c8ebf;fontStyle=1;" parent="tDKwjG9Szb6Y_vNa8xe7-17" vertex="1">
          <mxGeometry x="380" y="45" width="60" height="60" as="geometry" />
        </mxCell>
        <mxCell id="-CNI9j7d4ndpFzIIxBZn-18" style="edgeStyle=orthogonalEdgeStyle;rounded=0;orthogonalLoop=1;jettySize=auto;html=1;exitX=1;exitY=0.5;exitDx=0;exitDy=0;" edge="1" parent="tDKwjG9Szb6Y_vNa8xe7-17" source="-CNI9j7d4ndpFzIIxBZn-1" target="-CNI9j7d4ndpFzIIxBZn-17">
          <mxGeometry relative="1" as="geometry" />
        </mxCell>
        <mxCell id="-CNI9j7d4ndpFzIIxBZn-1" value="Refresh and try again" style="rounded=1;whiteSpace=wrap;html=1;shadow=0;labelBackgroundColor=none;strokeWidth=1;fontFamily=Verdana;fontSize=8;align=center;fillColor=#e51400;strokeColor=#B20000;fontStyle=1;fontColor=#ffffff;" vertex="1" parent="tDKwjG9Szb6Y_vNa8xe7-17">
          <mxGeometry x="140" y="50.75" width="90" height="48.5" as="geometry" />
        </mxCell>
        <mxCell id="-CNI9j7d4ndpFzIIxBZn-3" value="Checked in every file" style="text;html=1;align=center;verticalAlign=middle;whiteSpace=wrap;rounded=0;fontStyle=1" vertex="1" parent="tDKwjG9Szb6Y_vNa8xe7-17">
          <mxGeometry x="70" y="10" width="80" height="30" as="geometry" />
        </mxCell>
        <mxCell id="-CNI9j7d4ndpFzIIxBZn-4" style="edgeStyle=orthogonalEdgeStyle;rounded=0;orthogonalLoop=1;jettySize=auto;html=1;exitX=0;exitY=0.75;exitDx=0;exitDy=0;entryX=0.25;entryY=1;entryDx=0;entryDy=0;" edge="1" parent="tDKwjG9Szb6Y_vNa8xe7-17" source="-CNI9j7d4ndpFzIIxBZn-1" target="-CNI9j7d4ndpFzIIxBZn-1">
          <mxGeometry relative="1" as="geometry">
            <Array as="points">
              <mxPoint x="130" y="87" />
              <mxPoint x="130" y="120" />
              <mxPoint x="163" y="120" />
            </Array>
          </mxGeometry>
        </mxCell>
        <mxCell id="-CNI9j7d4ndpFzIIxBZn-5" value="2x" style="edgeLabel;html=1;align=center;verticalAlign=middle;resizable=0;points=[];" vertex="1" connectable="0" parent="-CNI9j7d4ndpFzIIxBZn-4">
          <mxGeometry x="-0.0952" relative="1" as="geometry">
            <mxPoint x="1" as="offset" />
          </mxGeometry>
        </mxCell>
        <mxCell id="-CNI9j7d4ndpFzIIxBZn-19" style="edgeStyle=orthogonalEdgeStyle;rounded=0;orthogonalLoop=1;jettySize=auto;html=1;exitX=1;exitY=0.5;exitDx=0;exitDy=0;entryX=0;entryY=0.5;entryDx=0;entryDy=0;" edge="1" parent="tDKwjG9Szb6Y_vNa8xe7-17" source="-CNI9j7d4ndpFzIIxBZn-17" target="tDKwjG9Szb6Y_vNa8xe7-21">
          <mxGeometry relative="1" as="geometry" />
        </mxCell>
        <mxCell id="-CNI9j7d4ndpFzIIxBZn-17" value="Send Mail to exceptions with screen" style="rounded=1;whiteSpace=wrap;html=1;shadow=0;labelBackgroundColor=none;strokeWidth=1;fontFamily=Verdana;fontSize=8;align=center;fillColor=#e51400;strokeColor=#B20000;fontStyle=1;fontColor=#ffffff;" vertex="1" parent="tDKwjG9Szb6Y_vNa8xe7-17">
          <mxGeometry x="260" y="50.75" width="90" height="48.5" as="geometry" />
        </mxCell>
        <mxCell id="-CNI9j7d4ndpFzIIxBZn-23" value="BE02 No WI found" style="swimlane;html=1;startSize=20;horizontal=0;fillColor=#e51400;strokeColor=#B20000;fontColor=#ffffff;" vertex="1" parent="1">
          <mxGeometry x="-80" y="570" width="480" height="190" as="geometry" />
        </mxCell>
        <mxCell id="-CNI9j7d4ndpFzIIxBZn-24" value="BE02" style="ellipse;whiteSpace=wrap;html=1;rounded=0;shadow=0;labelBackgroundColor=none;strokeWidth=1;fontFamily=Verdana;fontSize=8;align=center;fillColor=#e51400;strokeColor=#B20000;fontStyle=1;fontColor=#ffffff;" vertex="1" parent="-CNI9j7d4ndpFzIIxBZn-23">
          <mxGeometry x="40" y="65" width="60" height="60" as="geometry" />
        </mxCell>
        <mxCell id="-CNI9j7d4ndpFzIIxBZn-32" style="edgeStyle=orthogonalEdgeStyle;rounded=0;orthogonalLoop=1;jettySize=auto;html=1;exitX=1;exitY=0.5;exitDx=0;exitDy=0;entryX=0;entryY=0.5;entryDx=0;entryDy=0;" edge="1" parent="-CNI9j7d4ndpFzIIxBZn-23" source="-CNI9j7d4ndpFzIIxBZn-26" target="-CNI9j7d4ndpFzIIxBZn-31">
          <mxGeometry relative="1" as="geometry" />
        </mxCell>
        <mxCell id="-CNI9j7d4ndpFzIIxBZn-26" value="Wait 30 mins and retry" style="rounded=1;whiteSpace=wrap;html=1;shadow=0;labelBackgroundColor=none;strokeWidth=1;fontFamily=Verdana;fontSize=8;align=center;fillColor=#e51400;strokeColor=#B20000;fontStyle=1;fontColor=#ffffff;" vertex="1" parent="-CNI9j7d4ndpFzIIxBZn-23">
          <mxGeometry x="140" y="70.75" width="90" height="48.5" as="geometry" />
        </mxCell>
        <mxCell id="-CNI9j7d4ndpFzIIxBZn-27" value="End&amp;nbsp;&lt;div&gt;Process&lt;/div&gt;" style="ellipse;whiteSpace=wrap;html=1;rounded=0;shadow=0;labelBackgroundColor=none;strokeWidth=1;fontFamily=Verdana;fontSize=8;align=center;fillColor=#ffcccc;strokeColor=#36393d;fontStyle=1;" vertex="1" parent="-CNI9j7d4ndpFzIIxBZn-23">
          <mxGeometry x="410" y="65" width="60" height="60" as="geometry" />
        </mxCell>
        <mxCell id="-CNI9j7d4ndpFzIIxBZn-28" style="edgeStyle=orthogonalEdgeStyle;rounded=0;orthogonalLoop=1;jettySize=auto;html=1;entryX=0;entryY=0.5;entryDx=0;entryDy=0;exitX=1;exitY=0.5;exitDx=0;exitDy=0;" edge="1" parent="-CNI9j7d4ndpFzIIxBZn-23" source="-CNI9j7d4ndpFzIIxBZn-24" target="-CNI9j7d4ndpFzIIxBZn-26">
          <mxGeometry relative="1" as="geometry">
            <mxPoint x="140" y="95" as="sourcePoint" />
          </mxGeometry>
        </mxCell>
        <mxCell id="-CNI9j7d4ndpFzIIxBZn-29" style="edgeStyle=orthogonalEdgeStyle;rounded=0;orthogonalLoop=1;jettySize=auto;html=1;exitX=0;exitY=0.75;exitDx=0;exitDy=0;entryX=0.25;entryY=1;entryDx=0;entryDy=0;" edge="1" parent="-CNI9j7d4ndpFzIIxBZn-23">
          <mxGeometry relative="1" as="geometry">
            <Array as="points">
              <mxPoint x="127" y="110" />
              <mxPoint x="127" y="143" />
              <mxPoint x="160" y="143" />
            </Array>
            <mxPoint x="137" y="110" as="sourcePoint" />
            <mxPoint x="160" y="122" as="targetPoint" />
          </mxGeometry>
        </mxCell>
        <mxCell id="-CNI9j7d4ndpFzIIxBZn-30" value="2x" style="edgeLabel;html=1;align=center;verticalAlign=middle;resizable=0;points=[];" vertex="1" connectable="0" parent="-CNI9j7d4ndpFzIIxBZn-29">
          <mxGeometry x="-0.0952" relative="1" as="geometry">
            <mxPoint x="1" as="offset" />
          </mxGeometry>
        </mxCell>
        <mxCell id="-CNI9j7d4ndpFzIIxBZn-33" style="edgeStyle=orthogonalEdgeStyle;rounded=0;orthogonalLoop=1;jettySize=auto;html=1;exitX=1;exitY=0.5;exitDx=0;exitDy=0;entryX=0;entryY=0.5;entryDx=0;entryDy=0;" edge="1" parent="-CNI9j7d4ndpFzIIxBZn-23" source="-CNI9j7d4ndpFzIIxBZn-31" target="-CNI9j7d4ndpFzIIxBZn-27">
          <mxGeometry relative="1" as="geometry" />
        </mxCell>
        <mxCell id="-CNI9j7d4ndpFzIIxBZn-31" value="Send mail to exceptions" style="rounded=1;whiteSpace=wrap;html=1;shadow=0;labelBackgroundColor=none;strokeWidth=1;fontFamily=Verdana;fontSize=8;align=center;fillColor=#e51400;strokeColor=#B20000;fontStyle=1;fontColor=#ffffff;" vertex="1" parent="-CNI9j7d4ndpFzIIxBZn-23">
          <mxGeometry x="250" y="70.75" width="90" height="48.5" as="geometry" />
        </mxCell>
        <mxCell id="-CNI9j7d4ndpFzIIxBZn-34" value="BE03 Wrong Items info" style="swimlane;html=1;startSize=20;horizontal=0;fillColor=#e51400;strokeColor=#B20000;fontColor=#ffffff;" vertex="1" parent="1">
          <mxGeometry x="400" y="570" width="480" height="190" as="geometry" />
        </mxCell>
        <mxCell id="-CNI9j7d4ndpFzIIxBZn-35" value="BE03" style="ellipse;whiteSpace=wrap;html=1;rounded=0;shadow=0;labelBackgroundColor=none;strokeWidth=1;fontFamily=Verdana;fontSize=8;align=center;fillColor=#e51400;strokeColor=#B20000;fontStyle=1;fontColor=#ffffff;" vertex="1" parent="-CNI9j7d4ndpFzIIxBZn-34">
          <mxGeometry x="40" y="65" width="60" height="60" as="geometry" />
        </mxCell>
        <mxCell id="-CNI9j7d4ndpFzIIxBZn-36" style="edgeStyle=orthogonalEdgeStyle;rounded=0;orthogonalLoop=1;jettySize=auto;html=1;exitX=1;exitY=0.5;exitDx=0;exitDy=0;entryX=0;entryY=0.5;entryDx=0;entryDy=0;" edge="1" parent="-CNI9j7d4ndpFzIIxBZn-34" source="-CNI9j7d4ndpFzIIxBZn-37" target="-CNI9j7d4ndpFzIIxBZn-43">
          <mxGeometry relative="1" as="geometry" />
        </mxCell>
        <mxCell id="-CNI9j7d4ndpFzIIxBZn-37" value="Retry transaction" style="rounded=1;whiteSpace=wrap;html=1;shadow=0;labelBackgroundColor=none;strokeWidth=1;fontFamily=Verdana;fontSize=8;align=center;fillColor=#e51400;strokeColor=#B20000;fontStyle=1;fontColor=#ffffff;" vertex="1" parent="-CNI9j7d4ndpFzIIxBZn-34">
          <mxGeometry x="140" y="70.75" width="90" height="48.5" as="geometry" />
        </mxCell>
        <mxCell id="-CNI9j7d4ndpFzIIxBZn-38" value="get Queue&lt;div&gt;item&lt;/div&gt;" style="ellipse;whiteSpace=wrap;html=1;rounded=0;shadow=0;labelBackgroundColor=none;strokeWidth=1;fontFamily=Verdana;fontSize=8;align=center;fillColor=#d5e8d4;strokeColor=#82b366;fontStyle=1;" vertex="1" parent="-CNI9j7d4ndpFzIIxBZn-34">
          <mxGeometry x="410" y="65" width="60" height="60" as="geometry" />
        </mxCell>
        <mxCell id="-CNI9j7d4ndpFzIIxBZn-39" style="edgeStyle=orthogonalEdgeStyle;rounded=0;orthogonalLoop=1;jettySize=auto;html=1;entryX=0;entryY=0.5;entryDx=0;entryDy=0;exitX=1;exitY=0.5;exitDx=0;exitDy=0;" edge="1" parent="-CNI9j7d4ndpFzIIxBZn-34" source="-CNI9j7d4ndpFzIIxBZn-35" target="-CNI9j7d4ndpFzIIxBZn-37">
          <mxGeometry relative="1" as="geometry">
            <mxPoint x="140" y="95" as="sourcePoint" />
          </mxGeometry>
        </mxCell>
        <mxCell id="-CNI9j7d4ndpFzIIxBZn-40" style="edgeStyle=orthogonalEdgeStyle;rounded=0;orthogonalLoop=1;jettySize=auto;html=1;exitX=0;exitY=0.75;exitDx=0;exitDy=0;entryX=0.25;entryY=1;entryDx=0;entryDy=0;" edge="1" parent="-CNI9j7d4ndpFzIIxBZn-34">
          <mxGeometry relative="1" as="geometry">
            <Array as="points">
              <mxPoint x="127" y="110" />
              <mxPoint x="127" y="143" />
              <mxPoint x="160" y="143" />
            </Array>
            <mxPoint x="137" y="110" as="sourcePoint" />
            <mxPoint x="160" y="122" as="targetPoint" />
          </mxGeometry>
        </mxCell>
        <mxCell id="-CNI9j7d4ndpFzIIxBZn-41" value="2x" style="edgeLabel;html=1;align=center;verticalAlign=middle;resizable=0;points=[];" vertex="1" connectable="0" parent="-CNI9j7d4ndpFzIIxBZn-40">
          <mxGeometry x="-0.0952" relative="1" as="geometry">
            <mxPoint x="1" as="offset" />
          </mxGeometry>
        </mxCell>
        <mxCell id="-CNI9j7d4ndpFzIIxBZn-42" style="edgeStyle=orthogonalEdgeStyle;rounded=0;orthogonalLoop=1;jettySize=auto;html=1;exitX=1;exitY=0.5;exitDx=0;exitDy=0;entryX=0;entryY=0.5;entryDx=0;entryDy=0;" edge="1" parent="-CNI9j7d4ndpFzIIxBZn-34" source="-CNI9j7d4ndpFzIIxBZn-43" target="-CNI9j7d4ndpFzIIxBZn-38">
          <mxGeometry relative="1" as="geometry" />
        </mxCell>
        <mxCell id="-CNI9j7d4ndpFzIIxBZn-43" value="Set to faied and continue" style="rounded=1;whiteSpace=wrap;html=1;shadow=0;labelBackgroundColor=none;strokeWidth=1;fontFamily=Verdana;fontSize=8;align=center;fillColor=#e51400;strokeColor=#B20000;fontStyle=1;fontColor=#ffffff;" vertex="1" parent="-CNI9j7d4ndpFzIIxBZn-34">
          <mxGeometry x="250" y="70.75" width="90" height="48.5" as="geometry" />
        </mxCell>
      </root>
    </mxGraphModel>
  </diagram>
</mxfile>
